<svg xmlns="http://www.w3.org/2000/svg" viewBox="0 0 24 24" fill="currentColor">
  <path d="M20.52 3.48A11.89 11.89 0 0 0 12.06 0C5.5 0 .15 5.35.15 11.91c0 2.1.55 4.16 1.6 5.98L0 24l6.27-1.64a11.9 11.9 0 0 0 5.78 1.47h.01c6.56 0 11.91-5.35 11.91-11.91 0-3.18-1.24-6.17-3.45-8.44zM12.06 21.8h-.01a9.87 9.87 0 0 1-5.03-1.38l-.36-.21-3.72.98.99-3.63-.23-.37a9.82 9.82 0 0 1-1.52-5.28c0-5.44 4.43-9.87 9.88-9.87 2.64 0 5.12 1.02 6.98 2.88a9.78 9.78 0 0 1 2.89 6.99c0 5.45-4.43 9.89-9.89 9.89zm5.42-7.42c-.3-.15-1.77-.87-2.05-.96-.27-.1-.47-.15-.67.15-.2.3-.76.96-.94 1.16-.17.2-.35.22-.65.08-.3-.15-1.27-.47-2.42-1.5-.9-.8-1.5-1.78-1.68-2.08-.17-.3-.02-.46.13-.61.13-.13.3-.35.45-.52.15-.18.2-.3.3-.5.1-.2.05-.37-.03-.52-.08-.15-.67-1.61-.92-2.2-.24-.58-.49-.5-.67-.5h-.57c-.2 0-.52.08-.79.37-.27.3-1.04 1.01-1.04 2.46s1.06 2.85 1.2 3.05c.15.2 2.08 3.18 5.05 4.46.71.31 1.27.49 1.7.62.71.23 1.36.2 1.87.12.57-.08 1.77-.72 2.02-1.41.25-.7.25-1.29.17-1.41-.07-.12-.27-.2-.57-.35z"/>
</svg>
